<svg width="31" height="30" viewBox="0 0 31 30" fill="none" xmlns="http://www.w3.org/2000/svg">
<path d="M21.0178 0H9.98213C4.90387 0 0.785706 4.11816 0.785706 9.19643V20.2321C0.785706 25.3104 4.90387 29.4286 9.98213 29.4286H21.0178C26.0961 29.4286 30.2143 25.3104 30.2143 20.2321V9.19643C30.2143 4.11816 26.0961 0 21.0178 0ZM27.4553 20.2321C27.4553 23.782 24.5677 26.6696 21.0178 26.6696H9.98213C6.43231 26.6696 3.54463 23.782 3.54463 20.2321V9.19643C3.54463 5.64661 6.43231 2.75893 9.98213 2.75893H21.0178C24.5677 2.75893 27.4553 5.64661 27.4553 9.19643V20.2321Z" fill="white"/>
<path d="M15.5 7.35693C11.437 7.35693 8.14282 10.6511 8.14282 14.7141C8.14282 18.7771 11.437 22.0712 15.5 22.0712C19.5629 22.0712 22.8571 18.7771 22.8571 14.7141C22.8571 10.6511 19.5629 7.35693 15.5 7.35693ZM15.5 19.3123C12.9654 19.3123 10.9018 17.2486 10.9018 14.7141C10.9018 12.1777 12.9654 10.1159 15.5 10.1159C18.0345 10.1159 20.0982 12.1777 20.0982 14.7141C20.0982 17.2486 18.0345 19.3123 15.5 19.3123Z" fill="white"/>
<path d="M23.4089 7.78587C23.9504 7.78587 24.3893 7.34696 24.3893 6.80553C24.3893 6.26411 23.9504 5.8252 23.4089 5.8252C22.8675 5.8252 22.4286 6.26411 22.4286 6.80553C22.4286 7.34696 22.8675 7.78587 23.4089 7.78587Z" fill="white"/>
</svg>
