<svg width="16" height="16" viewBox="0 0 16 16" fill="none" xmlns="http://www.w3.org/2000/svg">
<path d="M15.165 7.38788C15.165 11.4654 11.8331 14.7764 7.72216 14.7764C6.41861 14.7764 5.19086 14.4403 4.12425 13.8577L0 15.165L1.34589 11.1994C0.665983 10.0873 0.274874 8.78246 0.274874 7.38852C0.274874 3.30914 3.60799 0 7.72213 0C11.8331 0 15.165 3.30914 15.165 7.38788ZM7.72213 1.17656C4.27147 1.17656 1.46089 3.96124 1.46089 7.38852C1.46089 8.74957 1.90445 10.0083 2.65261 11.0319L1.87287 13.3326L4.27842 12.5724C5.26542 13.222 6.44953 13.5967 7.72213 13.5967C11.1703 13.5967 13.9802 10.8108 13.9802 7.38348C13.9802 3.96187 11.1703 1.17656 7.72213 1.17656ZM11.4786 9.09016C11.4344 9.01623 11.3131 8.97135 11.133 8.87405C10.9454 8.78369 10.0519 8.35085 9.88002 8.29145C9.71637 8.23077 9.59503 8.20109 9.47372 8.38117C9.3467 8.55998 9.00107 8.97199 8.89555 9.09012C8.78309 9.21017 8.67818 9.22536 8.49747 9.13563C8.31929 9.04655 7.72784 8.85445 7.03214 8.23521C6.49124 7.75816 6.12287 7.16607 6.01735 6.98222C5.90866 6.7996 6.00473 6.7023 6.09572 6.61321C6.18103 6.53107 6.27897 6.39964 6.36933 6.29476C6.46349 6.19052 6.49317 6.11595 6.55321 5.99588C6.61388 5.87203 6.58289 5.76779 6.53805 5.67426C6.49317 5.5839 6.12544 4.69487 5.97504 4.33154C5.82151 3.96948 5.67239 4.02952 5.56684 4.02952C5.45688 4.02952 5.33811 4.01436 5.21426 4.01436C5.09422 4.01436 4.89581 4.0586 4.72646 4.24245C4.56154 4.4219 4.08826 4.85979 4.08826 5.75199C4.08826 6.64166 4.74162 7.50609 4.83514 7.62486C4.92613 7.7449 6.09572 9.62915 7.95282 10.3546C9.80739 11.08 9.80739 10.8405 10.1448 10.8102C10.474 10.7798 11.2253 10.3704 11.3757 9.95081C11.5235 9.52424 11.5235 9.16535 11.4786 9.09016Z" fill="white"/>
</svg>
