<svg width="30" height="30" viewBox="0 0 30 30" fill="none" xmlns="http://www.w3.org/2000/svg">
<path d="M20.8036 0H9.76784C4.68957 0 0.571411 4.11816 0.571411 9.19643V20.2321C0.571411 25.3104 4.68957 29.4286 9.76784 29.4286H20.8036C25.8818 29.4286 30 25.3104 30 20.2321V9.19643C30 4.11816 25.8818 0 20.8036 0ZM27.2411 20.2321C27.2411 23.782 24.3534 26.6696 20.8036 26.6696H9.76784C6.21802 26.6696 3.33034 23.782 3.33034 20.2321V9.19643C3.33034 5.64661 6.21802 2.75893 9.76784 2.75893H20.8036C24.3534 2.75893 27.2411 5.64661 27.2411 9.19643V20.2321Z" fill="white"/>
<path d="M20.8419 13.1847C20.6557 13.07 20.4109 13.1261 20.2949 13.3101C20.179 13.4941 20.2357 13.736 20.4218 13.8507C20.8547 14.1175 21.1131 14.5779 21.1131 15.0823C21.1131 15.5866 20.8547 16.047 20.4218 16.3138L13.9105 20.3268C13.4512 20.6099 12.8944 20.6239 12.4211 20.3643C11.9478 20.1047 11.6653 19.6302 11.6653 19.0952V11.0692C11.6653 10.5342 11.9478 10.0598 12.4211 9.80013C12.8944 9.54058 13.4512 9.55451 13.9105 9.8376L17.7009 12.1737C17.887 12.2883 18.1318 12.2323 18.2479 12.0484C18.3639 11.8645 18.3071 11.6224 18.1211 11.5078L14.3306 9.17175C13.623 8.73562 12.7652 8.71398 12.0359 9.114C11.3067 9.51396 10.8714 10.2449 10.8714 11.0692V19.0952C10.8714 19.9195 11.3067 20.6504 12.0359 21.0504C12.3833 21.2409 12.7597 21.3358 13.1353 21.3358C13.5482 21.3358 13.9601 21.2211 14.3306 20.9926L20.8419 16.9796C21.5089 16.5685 21.9071 15.8592 21.9071 15.0822C21.9071 14.3052 21.5089 13.5959 20.8419 13.1847Z" fill="white" stroke="white"/>
</svg>
