<svg width="235" height="43" viewBox="0 0 235 43" fill="none" xmlns="http://www.w3.org/2000/svg">
<path d="M58.75 26.279V26.6566C59.4297 33.5283 65.1687 38.7388 71.8895 38.8899C66.679 35.4917 62.9788 29.8282 62.3747 23.1074V22.7298C62.3747 22.4278 62.3747 22.2012 62.3747 21.9747C62.1482 21.8992 61.9216 21.8992 61.7706 21.8992C60.0338 21.8992 58.599 23.3339 58.599 25.0708V25.3728C58.599 25.5239 58.599 25.5994 58.599 25.7504C58.75 25.9014 58.75 26.128 58.75 26.279Z" fill="#FBBA00"/>
<path d="M81.8564 41.8347C81.7812 41.8347 81.706 41.9099 81.6308 41.9099C81.706 41.9099 81.7812 41.8347 81.8564 41.8347Z" fill="#FBBD00"/>
<path d="M86.3875 39.4939C86.3123 39.5691 86.3123 39.5691 86.2372 39.6443C86.2372 39.5691 86.3123 39.5691 86.3875 39.4939Z" fill="#FBBD00"/>
<path d="M82.7625 41.4573C82.6873 41.4573 82.6121 41.5325 82.5369 41.5325C82.6121 41.5325 82.6873 41.5325 82.7625 41.4573Z" fill="#FBBD00"/>
<path d="M90.0126 36.0203C89.9374 36.0203 89.9374 36.0955 90.0126 36.0203C89.9374 36.0955 89.9374 36.0203 90.0126 36.0203Z" fill="#FBBD00"/>
<path d="M85.4817 40.0981L85.4065 40.1733C85.4065 40.0981 85.4817 40.0981 85.4817 40.0981Z" fill="#FBBD00"/>
<path d="M83.6687 41.0796C83.5935 41.0796 83.5183 41.1548 83.4431 41.1548C83.5183 41.1548 83.5935 41.0796 83.6687 41.0796Z" fill="#FBBD00"/>
<path d="M87.1427 38.8899C87.0675 38.8899 87.0675 38.9651 86.9923 38.9651C87.0675 38.9651 87.0675 38.9651 87.1427 38.8899Z" fill="#FBBD00"/>
<path d="M62.4502 22.8054V23.1829C63.0543 29.8282 66.7545 35.4917 71.965 38.9654C72.4936 38.9654 73.0222 38.9654 73.5508 38.8899H73.8528C77.251 38.5878 80.2715 37.002 82.3859 34.7366H82.3104C80.5736 35.8693 78.4592 36.5489 76.2693 36.5489H76.0427C69.9261 36.5489 65.0177 31.565 65.0177 25.5239V25.2218C65.0177 23.7115 63.9605 22.4278 62.5257 22.1257C62.4502 22.2768 62.4502 22.5033 62.4502 22.8054Z" fill="#118938"/>
<path d="M79.4408 41.986C78.6857 41.835 77.9306 41.684 77.2509 41.3819H77.1754C76.8734 41.3064 76.5713 41.1554 76.2693 41.0799C76.1937 41.0799 76.1182 41.0043 76.1182 41.0043C75.4386 40.7778 74.759 40.4757 74.1549 40.0982C74.0793 40.0227 74.0038 40.0227 73.9283 39.9471C73.7018 39.7961 73.4752 39.7206 73.2487 39.5696C73.1732 39.4941 73.0977 39.4941 73.0221 39.4185C72.7201 39.2675 72.418 39.041 72.116 38.8899C65.3197 38.7389 59.5806 33.5284 58.9765 26.6567V26.2791C58.9765 26.0525 58.901 25.9015 58.901 25.7505C59.052 35.1898 66.83 42.7412 76.2693 42.7412H76.4958C78.0061 42.7412 79.4408 42.5146 80.8756 42.2126C80.498 42.1371 80.1205 42.0615 79.7429 41.986C79.5164 41.986 79.5164 41.986 79.4408 41.986Z" fill="#E5007A"/>
<path d="M76.0428 41.0042C76.1179 41.0042 76.1931 41.0793 76.1931 41.0793C76.1931 41.0041 76.1179 41.0042 76.0428 41.0042Z" fill="#E4007E"/>
<path d="M72.8712 39.4185C72.9463 39.4936 73.0215 39.4937 73.0967 39.5688C73.0215 39.5688 72.9463 39.4936 72.8712 39.4185Z" fill="#E4007E"/>
<path d="M73.8528 39.947C73.928 40.0222 74.0032 40.0222 74.0784 40.0974C74.0032 40.0974 73.928 40.0222 73.8528 39.947Z" fill="#E4007E"/>
<path d="M84.8779 34.661H85.1799C85.5575 34.661 85.8596 34.5855 86.2371 34.51C86.3882 34.51 86.5392 34.4344 86.6902 34.4344C86.9168 34.3589 87.0678 34.3589 87.2943 34.2834C87.4454 34.2079 87.6719 34.2079 87.8229 34.1324C87.974 34.0569 88.125 34.0569 88.276 33.9814C88.5026 33.9058 88.7291 33.8303 88.8801 33.7548C88.9557 33.6793 89.1067 33.6793 89.1822 33.6038C89.4087 33.5283 89.6353 33.3772 89.8618 33.3017C89.9373 33.3017 90.0129 33.2262 90.0884 33.2262C90.3149 33.0752 90.5415 32.9997 90.768 32.8486C90.8435 32.8486 90.8435 32.7731 90.919 32.7731C91.1456 32.6221 91.4476 32.4711 91.6742 32.32C91.6742 32.32 91.7497 32.32 91.7497 32.2445C91.9762 32.0935 92.2783 31.867 92.5048 31.6404C93.26 29.6771 93.6375 27.6382 93.6375 25.4483V25.1462C93.6375 23.4094 92.2028 21.9746 90.4659 21.9746C88.7291 21.9746 87.2943 23.4094 87.2943 25.1462V25.4483C87.2943 29.224 85.4065 32.5466 82.537 34.5855C82.4614 34.661 82.4614 34.661 82.3859 34.7365C83.2166 34.7365 84.0472 34.7365 84.8779 34.661Z" fill="#E30613"/>
<path d="M87.2943 34.2079C87.4454 34.1324 87.6719 34.1324 87.8229 34.0569C87.6719 34.1324 87.5209 34.2079 87.2943 34.2079Z" fill="#E31119"/>
<path d="M86.3127 34.4344C86.4637 34.4344 86.6147 34.3589 86.7657 34.3589C86.5392 34.3589 86.4637 34.4344 86.3127 34.4344Z" fill="#E31119"/>
<path d="M88.276 33.906C88.5026 33.8305 88.7291 33.755 88.8801 33.6794C88.7291 33.755 88.5026 33.8305 88.276 33.906Z" fill="#E31119"/>
<path d="M89.2577 33.6038C89.4843 33.5283 89.7108 33.3773 89.9373 33.3018C89.7108 33.3773 89.4843 33.4528 89.2577 33.6038Z" fill="#E31119"/>
<path d="M90.9945 32.6975C91.2211 32.5464 91.5231 32.3954 91.7497 32.2444C91.4476 32.3954 91.2211 32.5464 90.9945 32.6975Z" fill="#E31119"/>
<path d="M91.7497 32.1691C91.9762 32.018 92.2783 31.7915 92.5048 31.5649C92.2783 31.7915 91.9762 31.9425 91.7497 32.1691Z" fill="#E31119"/>
<path d="M90.0883 33.1505C90.3149 32.9995 90.5414 32.924 90.768 32.7729C90.6169 32.924 90.3904 32.9995 90.0883 33.1505Z" fill="#E31119"/>
<path d="M83.4431 41.1553C83.2166 41.2308 82.99 41.3818 82.7635 41.4573C82.99 41.3818 83.2166 41.3063 83.4431 41.1553Z" fill="#6E2683"/>
<path d="M89.9373 36.0957C89.7108 36.3222 89.5598 36.5488 89.3332 36.7753C89.5598 36.5488 89.7108 36.3222 89.9373 36.0957Z" fill="#6E2683"/>
<path d="M92.5048 31.5649C92.3538 31.867 92.2783 32.1691 92.1273 32.4711C92.2783 32.2446 92.3538 31.9425 92.5048 31.5649Z" fill="#6E2683"/>
<path d="M92.0517 32.5466C91.5231 33.7549 90.768 34.9631 89.9373 36.0203C90.8435 34.9631 91.5231 33.8304 92.0517 32.5466Z" fill="#6E2683"/>
<path d="M85.4065 40.1736C84.8779 40.5512 84.2738 40.8532 83.6696 41.0798C84.2738 40.7777 84.8024 40.4756 85.4065 40.1736Z" fill="#6E2683"/>
<path d="M86.2371 39.645C86.0106 39.796 85.784 39.9471 85.5575 40.0981C85.7085 39.9471 85.9351 39.796 86.2371 39.645Z" fill="#6E2683"/>
<path d="M86.9923 39.0408C86.7657 39.1918 86.5392 39.3428 86.3127 39.4939C86.6147 39.3428 86.7657 39.1918 86.9923 39.0408Z" fill="#6E2683"/>
<path d="M76.1938 41.0796C76.4958 41.2306 76.7979 41.3061 77.0999 41.3816C76.8734 41.2306 76.4958 41.1551 76.1938 41.0796Z" fill="#6E2683"/>
<path d="M77.2509 41.3818C78.0061 41.6084 78.6857 41.8349 79.4409 41.9859C78.6857 41.8349 78.0061 41.6084 77.2509 41.3818Z" fill="#6E2683"/>
<path d="M74.0794 40.0981C74.6835 40.4002 75.3631 40.7023 76.0427 41.0043C75.3631 40.7023 74.6835 40.4002 74.0794 40.0981Z" fill="#6E2683"/>
<path d="M87.1433 38.8897C87.8985 38.2856 88.6536 37.606 89.2577 36.8508C88.6536 37.606 87.8985 38.2856 87.1433 38.8897Z" fill="#6E2683"/>
<path d="M79.5919 41.9859C79.9695 42.0614 80.347 42.1369 80.7246 42.2125C81.0267 42.1369 81.3287 42.0614 81.6308 41.9104C81.3287 41.9859 81.0267 42.1369 80.7246 42.2125C80.2715 42.1369 79.8939 42.0614 79.5919 41.9859Z" fill="#6E2683"/>
<path d="M73.0977 39.5693C73.3242 39.7204 73.5507 39.8714 73.7773 39.9469C73.6263 39.8714 73.3997 39.7204 73.0977 39.5693Z" fill="#6E2683"/>
<path d="M85.1799 34.5856C85.5575 34.5856 85.8596 34.5101 86.2371 34.4346C85.9351 34.5101 85.5575 34.5856 85.1799 34.5856Z" fill="#6E2683"/>
<path d="M86.6902 34.359C86.9168 34.2835 87.0678 34.2835 87.2943 34.208C87.1433 34.2835 86.9168 34.2835 86.6902 34.359Z" fill="#6E2683"/>
<path d="M82.5369 41.6084C82.3104 41.6839 82.0838 41.7594 81.8573 41.8349C82.0838 41.7594 82.3104 41.6839 82.5369 41.6084Z" fill="#6E2683"/>
<path d="M71.965 38.8899C72.267 39.1164 72.5691 39.2675 72.8711 39.4185C72.5691 39.2675 72.267 39.1164 71.965 38.8899Z" fill="#6E2683"/>
<path d="M87.8984 34.0568C88.0495 33.9813 88.2005 33.9813 88.3515 33.9058C88.125 33.9813 87.974 34.0568 87.8984 34.0568Z" fill="#6E2683"/>
<path d="M88.9556 33.6793C89.0311 33.6038 89.1822 33.6038 89.2577 33.5283C89.1067 33.6038 89.0311 33.6793 88.9556 33.6793Z" fill="#6E2683"/>
<path d="M90.8435 32.7729C90.9187 32.7729 90.9187 32.6978 90.9939 32.6978C90.9187 32.6978 90.8435 32.6978 90.8435 32.7729Z" fill="#6E2683"/>
<path d="M89.9373 33.2258C90.0125 33.2258 90.0877 33.1506 90.1629 33.1506C90.0125 33.2258 90.0125 33.2258 89.9373 33.2258Z" fill="#6E2683"/>
<path d="M91.7497 32.1689C91.4476 32.3954 91.2211 32.5465 90.919 32.6975C90.8435 32.6975 90.8435 32.773 90.768 32.773C90.5414 32.924 90.3149 33.0751 90.0884 33.1506C90.0128 33.1506 89.9373 33.2261 89.8618 33.2261C89.6353 33.3016 89.4087 33.4526 89.1822 33.5282C89.1067 33.6037 88.9556 33.6037 88.8801 33.6792C88.6536 33.7547 88.5026 33.8302 88.276 33.9057C88.125 33.9812 87.974 33.9812 87.8229 34.0568C87.6719 34.1323 87.4454 34.2078 87.2943 34.2078C87.0678 34.2833 86.9168 34.2833 86.6902 34.3588C86.5392 34.3588 86.3882 34.4343 86.2371 34.4343C85.8596 34.5098 85.5575 34.5098 85.1799 34.5854H84.8779C84.0472 34.6609 83.2166 34.6609 82.3859 34.5854C80.196 36.9263 77.251 38.4366 73.8528 38.7386H73.5508C73.0222 38.8142 72.4936 38.8141 71.965 38.8141C72.267 39.0407 72.5691 39.1917 72.8711 39.3427C72.9467 39.4183 73.0222 39.4183 73.0977 39.4938C73.3242 39.6448 73.5508 39.7958 73.7773 39.8713C73.8528 39.9469 73.9283 39.9469 74.0039 40.0224C74.608 40.3244 75.2876 40.6265 75.9672 40.9285C76.0427 40.9285 76.1182 41.0041 76.1182 41.0041C76.4203 41.1551 76.7224 41.2306 77.0244 41.3061H77.0999C77.8551 41.5327 78.5347 41.7592 79.2898 41.9102H79.3654C79.7429 41.9857 80.1205 42.0613 80.4981 42.1368C80.8001 42.0613 81.1022 41.9857 81.4042 41.8347C81.4797 41.8347 81.5553 41.7592 81.6308 41.7592C81.8573 41.6837 82.0839 41.6082 82.3104 41.5327C82.3859 41.5327 82.4614 41.4571 82.5369 41.4571C82.7635 41.3816 82.99 41.2306 83.2166 41.1551C83.2921 41.1551 83.3676 41.0796 83.4431 41.0796C84.0472 40.7775 84.5758 40.4755 85.1799 40.1734L85.2555 40.0979C85.482 39.9469 85.7085 39.7958 85.9351 39.6448C86.0106 39.6448 86.0106 39.5693 86.0861 39.4938C86.3127 39.3428 86.5392 39.1917 86.7657 39.0407C86.8413 39.0407 86.8413 38.9652 86.9168 38.9652C87.6719 38.3611 88.4271 37.6814 89.0312 36.9263C89.0312 36.9263 89.0312 36.9263 89.1067 36.8508C89.3332 36.6242 89.4842 36.3977 89.7108 36.1712C89.7108 36.1712 89.7108 36.0956 89.7863 36.0956C90.617 35.0384 91.2966 33.9057 91.9007 32.622C92.0517 32.3199 92.2028 32.0179 92.2783 31.7158C92.2783 31.7913 91.9762 31.9424 91.7497 32.1689Z" fill="#702283"/>
<path d="M35.5672 4.00225C34.963 4.22879 32.018 5.21048 32.018 5.21048C32.018 5.21048 26.4299 0 19.2561 0C14.4232 0 9.5903 1.96337 5.96562 5.3615C2.1144 8.98618 0 13.8946 0 19.2561C0 32.5466 11.1006 38.7388 18.5765 38.7388C26.2034 38.7388 30.5832 34.963 32.018 33.0752C32.3956 33.9058 33.4528 35.4916 35.6427 35.4916C38.5877 35.4916 39.5694 32.8487 39.5694 31.4894V7.17384C39.4939 4.22879 37.2285 3.39814 35.5672 4.00225ZM31.0363 20.7664V20.9929C30.2812 27.3361 24.1645 32.018 17.6703 31.2629C11.1761 30.5077 6.49422 24.6931 7.17384 18.2744V18.0479C7.55141 14.9518 9.0617 12.1578 11.5537 10.1944C14.0456 8.23104 17.1417 7.40038 20.3133 7.70244H20.5398C27.3361 8.5331 31.7915 14.0456 31.0363 20.7664ZM144.987 4.00225C144.383 4.22879 141.438 5.21048 141.438 5.21048C141.438 5.21048 135.85 0 128.676 0C123.843 0 119.01 1.96337 115.386 5.3615C111.534 8.98618 109.42 13.8946 109.42 19.2561C109.42 32.5466 120.521 38.7388 127.996 38.7388C135.623 38.7388 140.003 34.963 141.438 33.0752C141.816 33.9058 142.873 35.4916 145.063 35.4916C148.008 35.4916 148.989 32.8487 148.989 31.4894V7.17384C148.989 4.22879 146.648 3.39814 144.987 4.00225ZM140.456 20.7664V20.9929C139.701 27.3361 133.585 32.018 127.09 31.2629C120.596 30.5077 115.914 24.6931 116.594 18.2744V18.0479C116.971 14.9518 118.482 12.1578 120.974 10.1944C123.466 8.23104 126.562 7.40038 129.733 7.70244H129.96C136.832 8.5331 141.211 14.0456 140.456 20.7664ZM192.486 19.3316C192.486 19.7092 192.486 20.0868 192.486 20.3888V31.867C192.486 33.9058 190.824 35.5672 188.785 35.5672C186.746 35.5672 185.085 33.9058 185.085 31.867V25.3728L185.01 25.1462V19.1051C185.01 12.8374 179.875 7.70244 173.607 7.70244H172.55C166.282 7.70244 161.223 12.7619 161.223 19.0296V31.6404C161.223 33.6793 159.712 35.3406 157.674 35.4916C157.598 35.4916 157.447 35.4916 157.371 35.4916H157.296C157.069 35.4916 156.843 35.4916 156.616 35.4161C155.861 35.2651 155.257 34.963 154.728 34.4344C154.049 33.7548 153.596 32.9242 153.52 31.9425C153.52 31.867 153.52 13.1395 153.52 7.32487C153.52 7.24936 153.52 7.24936 153.52 7.17384C153.52 4.30431 155.786 3.47365 157.447 4.07776C158.051 4.30431 160.996 5.28599 160.996 5.28599C160.996 5.28599 166.584 0.0755141 173.758 0.0755141C182.895 0.0755141 192.486 7.24936 192.486 19.3316ZM230.998 4.00225C230.394 4.22879 227.449 5.21048 227.449 5.21048C227.449 5.21048 221.861 0 214.687 0C209.854 0 205.021 1.96337 201.396 5.3615C197.545 8.98618 195.431 13.8946 195.431 19.2561C195.431 32.5466 206.531 38.7388 214.007 38.7388C221.634 38.7388 226.014 34.963 227.449 33.0752C227.826 33.9058 228.883 35.4916 231.073 35.4916C234.018 35.4916 235 32.8487 235 31.4894V7.17384C235 4.22879 232.735 3.39814 230.998 4.00225ZM226.467 20.7664V20.9929C225.712 27.3361 219.595 32.018 213.101 31.2629C206.607 30.5077 201.925 24.6931 202.604 18.2744V18.0479C202.982 14.9518 204.492 12.1578 206.984 10.1944C209.476 8.23104 212.572 7.40038 215.744 7.70244H215.97C222.842 8.5331 227.222 14.0456 226.467 20.7664ZM106.701 17.4438V17.8969V31.6404C106.701 33.7548 104.965 35.4916 102.85 35.4916H102.699C100.66 35.4916 98.999 33.8303 98.999 31.7915V16.6886C98.999 11.0251 94.0151 7.55141 89.3332 7.55141H89.0312C83.5942 7.55141 79.2898 11.9312 79.2898 17.5948V18.1234V22.6542C79.2898 24.6931 77.6285 26.3544 75.5897 26.3544H75.4386C73.3242 26.3544 71.5874 24.6176 71.5874 22.5032V17.6703V17.5948C71.5874 11.9312 67.2831 7.55141 61.8461 7.55141H61.544C56.8621 7.55141 51.8782 11.0251 51.8782 16.6886V31.7915C51.8782 33.8303 50.2169 35.4916 48.178 35.4916H48.027C45.9126 35.4916 44.1758 33.7548 44.1758 31.6404V7.24936V7.17384C44.1758 4.30431 46.4412 3.47365 48.1025 4.07776C48.7066 4.30431 51.6517 5.28599 51.6517 5.28599C51.6517 5.28599 54.8233 0.90617 61.0909 0.302057C61.393 0.302057 61.6195 0.302057 61.9216 0.302057C67.2831 0.302057 72.267 2.86954 75.4386 7.09833C78.6102 2.86954 83.6697 0.302057 88.9557 0.302057C89.0312 0.302057 89.0312 0.302057 89.1067 0.302057H89.2577C96.205 0.226542 106.701 4.8329 106.701 17.4438Z" fill="white"/>
</svg>
